<svg width="51" height="26" viewBox="0 0 51 26" fill="none" xmlns="http://www.w3.org/2000/svg">
<g clip-path="url(#clip0_510_955)">
<g clip-path="url(#clip1_510_955)">
<path d="M0.571429 2.5V8.77409C0.571429 9.1692 0.6078 9.55538 0.67722 9.92916L6.1552 9.92905C8.07305 9.92905 9.77516 10.899 10.8409 12.3971C11.5683 11.3905 12 10.1352 12 8.77409V8.63704C12 5.24765 9.38319 2.5 6.1552 2.5H0.571429Z" fill="#111827"/>
<path d="M5.71443 11.5H0.00014019V17.5C0.00014019 20.8137 2.55851 23.5 5.71443 23.5C8.87034 23.5 11.4287 20.8137 11.4287 17.5C11.4287 14.1863 8.87034 11.5 5.71443 11.5Z" fill="#111827"/>
</g>
<path d="M24.752 18.692C24.3893 18.692 24.0107 18.6067 23.616 18.436C23.232 18.2547 22.8693 18.0093 22.528 17.7H22.48L22.368 18.5H21.312V7.108H22.624V10.212L22.592 11.62C22.944 11.3107 23.328 11.0547 23.744 10.852C24.1707 10.6387 24.5973 10.532 25.024 10.532C26.0373 10.532 26.8053 10.8893 27.328 11.604C27.8507 12.3187 28.112 13.2787 28.112 14.484C28.112 15.3693 27.952 16.1267 27.632 16.756C27.3227 17.3853 26.912 17.8653 26.4 18.196C25.8987 18.5267 25.3493 18.692 24.752 18.692ZM24.528 17.588C25.168 17.588 25.696 17.316 26.112 16.772C26.5387 16.2173 26.752 15.46 26.752 14.5C26.752 13.6467 26.592 12.9587 26.272 12.436C25.9627 11.9027 25.44 11.636 24.704 11.636C24.3733 11.636 24.0373 11.7267 23.696 11.908C23.3547 12.0893 22.9973 12.3507 22.624 12.692V16.772C22.9653 17.0707 23.3013 17.284 23.632 17.412C23.9733 17.5293 24.272 17.588 24.528 17.588ZM31.5478 18.692C31.0571 18.692 30.6998 18.5427 30.4758 18.244C30.2624 17.9347 30.1558 17.4973 30.1558 16.932V7.108H31.4678V17.028C31.4678 17.2307 31.5051 17.38 31.5798 17.476C31.6544 17.5613 31.7398 17.604 31.8358 17.604C31.8784 17.604 31.9158 17.604 31.9478 17.604C31.9904 17.5933 32.0491 17.5827 32.1238 17.572L32.2998 18.564C32.2144 18.6067 32.1131 18.6387 31.9958 18.66C31.8784 18.6813 31.7291 18.692 31.5478 18.692ZM36.5059 18.692C35.6845 18.692 35.0819 18.436 34.6979 17.924C34.3139 17.4013 34.1219 16.644 34.1219 15.652V10.724H35.4499V15.476C35.4499 16.2013 35.5619 16.7293 35.7859 17.06C36.0205 17.3907 36.3939 17.556 36.9059 17.556C37.3112 17.556 37.6685 17.4547 37.9779 17.252C38.2979 17.0387 38.6392 16.7027 39.0019 16.244V10.724H40.3139V18.5H39.2259L39.1139 17.284H39.0659C38.7032 17.7107 38.3192 18.052 37.9139 18.308C37.5085 18.564 37.0392 18.692 36.5059 18.692ZM45.593 18.692C44.6223 18.692 43.8437 18.34 43.257 17.636C42.6703 16.9213 42.377 15.9187 42.377 14.628C42.377 13.7853 42.5317 13.06 42.841 12.452C43.161 11.8333 43.577 11.3587 44.089 11.028C44.6117 10.6973 45.1663 10.532 45.753 10.532C46.201 10.532 46.5903 10.612 46.921 10.772C47.2517 10.932 47.5877 11.1507 47.929 11.428L47.865 10.1V7.108H49.193V18.5H48.105L47.993 17.588H47.945C47.6463 17.8867 47.2943 18.148 46.889 18.372C46.4837 18.5853 46.0517 18.692 45.593 18.692ZM45.881 17.588C46.5637 17.588 47.225 17.2307 47.865 16.516V12.452C47.5343 12.1533 47.2143 11.9453 46.905 11.828C46.6063 11.7 46.297 11.636 45.977 11.636C45.561 11.636 45.1823 11.764 44.841 12.02C44.5103 12.2653 44.2437 12.612 44.041 13.06C43.8383 13.4973 43.737 14.0147 43.737 14.612C43.737 15.54 43.9237 16.2707 44.297 16.804C44.6703 17.3267 45.1983 17.588 45.881 17.588Z" fill="#111827"/>
</g>
<defs>
<clipPath id="clip0_510_955">
<rect width="51" height="25" fill="white" transform="translate(0 0.5)"/>
</clipPath>
<clipPath id="clip1_510_955">
<rect width="12" height="21" fill="white" transform="translate(0 2.5)"/>
</clipPath>
</defs>
</svg>
