<svg width="13" height="13" viewBox="0 0 13 13" fill="none" xmlns="http://www.w3.org/2000/svg">
<g clip-path="url(#clip0_404_2664)">
<path d="M12.5 9.79401C12.3254 9.86007 12.1326 9.85992 11.958 9.7936C11.7835 9.72728 11.6392 9.59938 11.5525 9.43401L9.82751 7.04851L9.57751 6.71501L7.57601 9.43701C7.4945 9.59544 7.35808 9.71876 7.19226 9.78391C7.02643 9.84906 6.84256 9.85158 6.67501 9.79101L9.25401 6.33101L6.85501 3.20551C7.0275 3.14335 7.21615 3.14252 7.38919 3.20318C7.56222 3.26383 7.70907 3.38226 7.80501 3.53851L9.59301 5.95351L11.391 3.54851C11.4731 3.39291 11.6096 3.27291 11.7744 3.21133C11.9393 3.14975 12.121 3.15088 12.285 3.21451L11.354 4.45001L10.093 6.09151C10.058 6.12275 10.03 6.16104 10.0108 6.20386C9.99159 6.24669 9.98167 6.29309 9.98167 6.34001C9.98167 6.38694 9.99159 6.43334 10.0108 6.47616C10.03 6.51899 10.058 6.55727 10.093 6.58851L12.495 9.79451L12.5 9.79401ZM0.501006 6.28801L0.711006 5.25051C1.28801 3.19901 3.64001 2.34551 5.25801 3.61551C6.20551 4.36001 6.44201 5.41401 6.39551 6.60201H1.05801C0.971506 8.72351 2.50251 10.0045 4.46001 9.35001C4.77734 9.23579 5.06138 9.04463 5.28668 8.79367C5.51199 8.54271 5.67153 8.23978 5.75101 7.91201C5.85451 7.57901 6.02501 7.52201 6.33801 7.61801C6.28585 8.0242 6.14226 8.41328 5.91804 8.75597C5.69382 9.09866 5.39481 9.38605 5.04351 9.59651C4.46321 9.91393 3.79742 10.0397 3.14132 9.95595C2.48522 9.87216 1.87241 9.58307 1.39051 9.13001C0.914021 8.59371 0.626044 7.91626 0.570506 7.20101C0.570506 7.08351 0.530506 6.97351 0.503506 6.86801C0.501072 6.67486 0.499905 6.48168 0.500006 6.28851L0.501006 6.28801ZM1.06451 6.14501H5.89151C5.86151 4.60701 4.89101 3.51601 3.59651 3.50601C2.15551 3.48601 1.12451 4.55301 1.06101 6.13801L1.06451 6.14501Z" fill="#111827"/>
</g>
<defs>
<clipPath id="clip0_404_2664">
<rect width="12" height="12" fill="white" transform="translate(0.5 0.5)"/>
</clipPath>
</defs>
</svg>
