<svg width="36" height="36" viewBox="0 0 36 36" fill="none" xmlns="http://www.w3.org/2000/svg">
<path d="M18.7389 16.38V21.3H30.8077C30.4382 24.06 29.4946 26.0805 28.0568 27.4995C26.2911 29.22 23.5418 31.0995 18.7389 31.0995C11.3083 31.0995 5.50021 25.26 5.50021 18.0195C5.50021 10.779 11.3083 4.9395 18.7389 4.9395C22.7413 4.9395 25.6769 6.48 27.832 8.46L31.3834 4.9995C28.3862 2.16 24.3623 0 18.7389 0C8.55897 0 0 8.0805 0 18C0 27.9195 8.55897 36 18.7389 36C24.2391 36 28.3862 34.2405 31.6282 30.96C34.9532 27.72 36 23.1405 36 19.4595C36 18.3195 35.9184 17.259 35.7337 16.38H18.7389Z" fill="#111827"/>
</svg>
