<svg width="36" height="37" viewBox="0 0 36 37" fill="none" xmlns="http://www.w3.org/2000/svg">
<g clip-path="url(#clip0_510_983)">
<path d="M33.5265 12.5285L23.9715 2.97345C22.3878 1.38972 20.2398 0.5 18 0.5C15.7603 0.5 13.6122 1.38972 12.0285 2.97345L2.47348 12.5285C0.889738 14.1122 0 16.2603 0 18.5C0 20.7398 0.889738 22.8878 2.47348 24.4715L12.0285 34.0266C13.6122 35.6103 15.7603 36.5 18 36.5C20.2398 36.5 22.3878 35.6103 23.9715 34.0266L33.5265 24.4715C35.1103 22.8878 36 20.7398 36 18.5C36 16.2603 35.1103 14.1122 33.5265 12.5285ZM18 24.4295C17.22 24.4316 16.4472 24.2798 15.726 23.9828C15.0047 23.6857 14.3492 23.2493 13.7969 22.6985C13.2446 22.1477 12.8064 21.4933 12.5074 20.7729C12.2084 20.0524 12.0545 19.2801 12.0545 18.5C12.0545 17.72 12.2084 16.9477 12.5074 16.2272C12.8064 15.5068 13.2446 14.8524 13.7969 14.3016C14.3492 13.7508 15.0047 13.3143 15.726 13.0173C16.4472 12.7202 17.22 12.5684 18 12.5705C19.5698 12.5748 21.0739 13.2014 22.1825 14.3129C23.291 15.4244 23.9135 16.9302 23.9135 18.5C23.9135 20.0699 23.291 21.5757 22.1825 22.6872C21.0739 23.7987 19.5698 24.4253 18 24.4295Z" fill="#111827"/>
</g>
<defs>
<clipPath id="clip0_510_983">
<rect width="36" height="36" fill="white" transform="translate(0 0.5)"/>
</clipPath>
</defs>
</svg>
