<svg width="13" height="15" viewBox="0 0 13 15" fill="none" xmlns="http://www.w3.org/2000/svg">
<path d="M6.50006 14.1567C6.31673 14.1567 6.14539 14.1073 5.98539 14.022L4.35939 13.0567C4.11606 12.9213 4.23806 12.872 4.31139 12.8473C4.64206 12.7373 4.70339 12.7133 5.04539 12.5187C5.08273 12.494 5.13139 12.5053 5.16873 12.53L6.41539 13.2767C6.46473 13.3007 6.52606 13.3007 6.56273 13.2767L11.4421 10.452C11.4914 10.428 11.5154 10.3787 11.5154 10.3173V4.67867C11.5154 4.61801 11.4914 4.56867 11.4421 4.54467L6.56273 1.73201C6.51406 1.70734 6.45273 1.70734 6.41539 1.73201L1.53473 4.54401C1.48606 4.56801 1.46139 4.63001 1.46139 4.67801V10.316C1.46139 10.3647 1.48606 10.4267 1.53473 10.4507L2.86806 11.222C3.58939 11.5873 4.04273 11.1587 4.04273 10.732V5.16801C4.04273 5.09467 4.10339 5.02067 4.18939 5.02067H4.81339C4.88539 5.02067 4.96006 5.08201 4.96006 5.16801V10.7327C4.96006 11.6987 4.43473 12.262 3.51739 12.262C3.23606 12.262 3.01606 12.262 2.39206 11.9553L1.10873 11.2227C0.952365 11.1318 0.8226 11.0014 0.732401 10.8447C0.642202 10.6879 0.594729 10.5102 0.594727 10.3293V4.69067C0.594727 4.32401 0.79006 3.98134 1.10873 3.79801L5.98606 0.973339C6.14439 0.888662 6.32117 0.84436 6.50073 0.84436C6.68028 0.84436 6.85706 0.888662 7.01539 0.973339L11.8934 3.79801C12.2127 3.98067 12.4074 4.32401 12.4074 4.69067V10.3293C12.4074 10.6953 12.2121 11.038 11.8934 11.2227L7.01539 14.0467C6.85473 14.12 6.67139 14.1567 6.50006 14.1567ZM8.00406 10.2793C5.86406 10.2793 5.42406 9.30067 5.42406 8.47001C5.42406 8.39667 5.48539 8.32267 5.57073 8.32267H6.20673C6.28006 8.32267 6.34073 8.37134 6.34073 8.44534C6.43873 9.09267 6.71939 9.41134 8.01673 9.41134C9.04339 9.41134 9.48473 9.17801 9.48473 8.62801C9.48473 8.31001 9.36139 8.07801 7.76006 7.91934C6.42739 7.78601 5.59606 7.49067 5.59606 6.42734C5.59606 5.43734 6.42739 4.85001 7.82206 4.85001C9.38673 4.85001 10.1574 5.38934 10.2547 6.56201C10.2536 6.60158 10.2406 6.6399 10.2174 6.67201C10.1927 6.69601 10.1567 6.72067 10.1201 6.72067H9.48473C9.45332 6.72001 9.42303 6.70889 9.39865 6.6891C9.37426 6.6693 9.35716 6.64194 9.35006 6.61134C9.20273 5.93667 8.82406 5.71801 7.82206 5.71801C6.69606 5.71801 6.56139 6.10934 6.56139 6.40267C6.56139 6.75667 6.71939 6.86667 8.23739 7.06267C9.74139 7.25801 10.4507 7.53934 10.4507 8.59201C10.4374 9.66867 9.55806 10.2793 8.00406 10.2793Z" fill="#111827"/>
</svg>
