<svg width="36" height="22" viewBox="0 0 36 22" fill="none" xmlns="http://www.w3.org/2000/svg">
<g clip-path="url(#clip0_510_989)">
<path d="M27.2025 13.7936C26.724 14.1251 26.19 14.3259 25.617 14.4176C25.044 14.5087 24.4755 14.4913 23.904 14.4913H12.0945C11.5215 14.4913 10.9515 14.514 10.377 14.4176C9.80551 14.3232 9.276 14.1251 8.7915 13.7936C7.827 13.1172 7.25101 12.0387 7.25101 10.8672C7.25101 9.67319 7.83147 8.59468 8.79453 7.94222C9.26565 7.60509 9.80551 7.40363 10.368 7.31217C10.9304 7.22108 11.493 7.22111 12.0795 7.22111H23.892C24.4544 7.22111 25.0395 7.19841 25.602 7.29025C26.1644 7.38058 26.7045 7.58126 27.1785 7.89776C28.1461 8.54878 28.7086 9.65276 28.7086 10.8213C28.7086 11.9913 28.122 13.0714 27.156 13.7463L27.2025 13.7936ZM31.9635 2.46117C30.696 1.44418 29.2456 0.742223 27.666 0.364195C26.766 0.14536 25.8616 0.0478738 24.933 0.0191494C24.2595 -0.00352773 23.5845 0.000233346 22.887 0.000233346H13.14C12.4545 0.000233346 11.7675 -0.00352773 11.082 0.0191494C10.155 0.0531652 9.24902 0.143849 8.34451 0.364195C6.76799 0.745171 5.30701 1.44867 4.04699 2.46423C1.485 4.51167 0 7.60017 0 10.8702C0 14.1432 1.485 17.2317 4.0335 19.2792C5.30251 20.2961 6.75601 20.9982 8.33101 21.3792C9.23549 21.5981 10.14 21.6955 11.0655 21.7227C11.7405 21.7454 12.4155 21.7378 13.113 21.7378H22.8571C23.5305 21.7378 24.228 21.7454 24.903 21.7227C25.8255 21.6925 26.7256 21.5996 27.624 21.3792C29.199 20.9954 30.6405 20.2947 31.9231 19.2762C34.5151 17.2302 36 14.1402 36 10.8702C36 7.5987 34.515 4.50865 31.9635 2.46117Z" fill="#111827"/>
</g>
<defs>
<clipPath id="clip0_510_989">
<rect width="36" height="22" fill="white"/>
</clipPath>
</defs>
</svg>
