<svg width="14" height="12" viewBox="0 0 14 12" fill="none" xmlns="http://www.w3.org/2000/svg">
<path d="M6.6734 7.12744C7.33062 7.12744 7.8634 6.59466 7.8634 5.93744C7.8634 5.28022 7.33062 4.74744 6.6734 4.74744C6.01618 4.74744 5.4834 5.28022 5.4834 5.93744C5.4834 6.59466 6.01618 7.12744 6.6734 7.12744Z" fill="#111827"/>
<path d="M3.34133 8.3035L3.078 8.23616C1.122 7.74216 0 6.90216 0 5.93483C0 4.96683 1.12267 4.1275 3.078 3.6335L3.34133 3.56683L3.41533 3.8275C3.61303 4.50996 3.86632 5.17507 4.17267 5.81616L4.22933 5.93483L4.17267 6.0535C3.866 6.6955 3.612 7.36083 3.41533 8.0435L3.34133 8.3035ZM2.95667 4.24016C1.47067 4.65883 0.558 5.2975 0.558 5.93483C0.558 6.57083 1.47 7.21016 2.95667 7.62816C3.13867 7.0495 3.35867 6.4835 3.61333 5.93483C3.35682 5.38525 3.13744 4.81909 2.95667 4.24016ZM10.0047 8.3035L9.93133 8.04216C9.73312 7.35956 9.47961 6.69425 9.17333 6.05283L9.11667 5.93483L9.17333 5.8155C9.48 5.17483 9.73267 4.50883 9.93133 3.82616L10.0047 3.56616L10.268 3.63283C12.2247 4.12683 13.346 4.96616 13.346 5.93483C13.346 6.90283 12.224 7.74216 10.268 8.23616L10.0047 8.3035ZM9.73133 5.93483C9.998 6.51216 10.22 7.08016 10.3893 7.62816C11.876 7.21016 12.7887 6.57083 12.7887 5.93483C12.7887 5.2975 11.8767 4.6595 10.3893 4.24016C10.2075 4.81891 9.98771 5.38503 9.73133 5.93483Z" fill="#111827"/>
<path d="M2.95285 4.23742L2.87952 3.97742C2.32885 2.03875 2.49552 0.650088 3.33752 0.166088C4.16085 -0.310579 5.48552 0.252754 6.87285 1.67609L7.06218 1.87075L6.87285 2.06475C6.3801 2.57721 5.92973 3.1288 5.52618 3.71409L5.45085 3.82209L5.32018 3.83275C4.61057 3.88849 3.90669 4.00197 3.21552 4.17209L2.95285 4.23742ZM4.00752 0.551421C3.85818 0.551421 3.72618 0.584088 3.61485 0.648088C3.06285 0.966088 2.96552 2.07342 3.34552 3.56809C3.93952 3.43675 4.53885 3.34275 5.14285 3.29009C5.49253 2.79412 5.87399 2.32135 6.28485 1.87475C5.41618 1.03009 4.59618 0.551421 4.00752 0.551421ZM9.33885 11.8741C8.54685 11.8741 7.52952 11.2768 6.47352 10.1928L6.28485 9.99875L6.47352 9.80542C6.96634 9.29214 7.41692 8.7399 7.82085 8.15409L7.89552 8.04742L8.02485 8.03475C8.73471 7.98001 9.43886 7.86696 10.1302 7.69675L10.3935 7.63009L10.4675 7.89075C11.0155 9.82809 10.8495 11.2188 10.0089 11.7028C9.80474 11.8185 9.57345 11.8776 9.33885 11.8741ZM7.06218 9.99409C7.93018 10.8388 8.75085 11.3181 9.33885 11.3181C9.48885 11.3181 9.62085 11.2848 9.73152 11.2214C10.2842 10.9028 10.3822 9.79342 10.0009 8.29875C9.40752 8.43075 8.80752 8.52542 8.20218 8.57809C7.85399 9.07483 7.47315 9.54788 7.06218 9.99409Z" fill="#111827"/>
<path d="M10.3932 4.23743L10.1298 4.17143C9.43856 4.00078 8.73441 3.88729 8.02452 3.8321L7.89518 3.82076L7.82052 3.71276C7.41715 3.12715 6.96653 2.57553 6.47318 2.06343L6.28452 1.86943L6.47318 1.6761C7.85985 0.253429 9.18385 -0.309904 10.0085 0.166096C10.8498 0.650762 11.0172 2.03943 10.4672 3.97743L10.3932 4.23743ZM8.20185 3.2901C8.83785 3.34676 9.44051 3.4421 10.0005 3.5681C10.3812 2.07343 10.2838 0.966095 9.73118 0.647429C9.18185 0.329429 8.14785 0.816096 7.06185 1.87476C7.47252 2.32143 7.85385 2.79343 8.20185 3.2901ZM4.00718 11.8741C3.7726 11.8774 3.54136 11.8183 3.33718 11.7028C2.49518 11.2188 2.32852 9.82876 2.87852 7.89076L2.95052 7.6301L3.21385 7.69676C3.85652 7.85876 4.56452 7.97276 5.31918 8.03476L5.44852 8.04743L5.52385 8.1541C5.92652 8.73943 6.37718 9.2921 6.87051 9.80543L7.05985 9.99876L6.87051 10.1928C5.81518 11.2774 4.79785 11.8741 4.00718 11.8741ZM3.34518 8.29943C2.96518 9.7941 3.06252 10.9034 3.61452 11.2221C4.16452 11.5354 5.19518 11.0521 6.28452 9.9941C5.87382 9.54736 5.49236 9.0746 5.14252 8.57876C4.53791 8.52529 3.9375 8.43198 3.34518 8.29943Z" fill="#111827"/>
<path d="M6.67328 8.64944C6.21528 8.64944 5.74528 8.63011 5.27328 8.59077L5.14262 8.57944L5.06728 8.47144C4.80112 8.0887 4.55069 7.69527 4.31661 7.29211C4.08427 6.88786 3.86832 6.47441 3.66928 6.05277L3.61328 5.93477L3.66928 5.81544C3.86861 5.3941 4.08395 4.98077 4.31661 4.57677C4.54795 4.17944 4.80061 3.7821 5.06728 3.39677L5.14262 3.2901L5.27328 3.2781C6.20454 3.2001 7.14069 3.2001 8.07195 3.2781L8.20128 3.29077L8.27661 3.39744C8.80981 4.16327 9.27811 4.97231 9.67661 5.8161L9.73195 5.93544L9.67661 6.05344C9.27921 6.89781 8.81086 7.70694 8.27661 8.4721L8.20128 8.5801L8.07195 8.59144C7.60128 8.62944 7.13061 8.64944 6.67328 8.64944ZM5.45061 8.04677C6.27395 8.10877 7.07261 8.10877 7.89528 8.04677C8.35454 7.37425 8.76279 6.66827 9.11661 5.93477C8.76404 5.20061 8.35574 4.49454 7.89528 3.82277C7.0816 3.7601 6.2643 3.7601 5.45061 3.82277C4.98977 4.4943 4.58145 5.2004 4.22928 5.93477C4.58387 6.66787 4.99209 7.37378 5.45061 8.04677Z" fill="#111827"/>
</svg>
