<svg width="23" height="23" viewBox="0 0 23 23" fill="none" xmlns="http://www.w3.org/2000/svg">
<path d="M11.5 1V2.16667M11.5 20.8333V22M22 11.5H20.8333M2.16667 11.5H1M18.9247 18.9247L18.0998 18.0998M4.90017 4.90017L4.07533 4.07533M18.9247 4.07533L18.0998 4.90017M4.90017 18.0998L4.07533 18.9247M16.1667 11.5C16.1667 12.7377 15.675 13.9247 14.7998 14.7998C13.9247 15.675 12.7377 16.1667 11.5 16.1667C10.2623 16.1667 9.07534 15.675 8.20017 14.7998C7.325 13.9247 6.83333 12.7377 6.83333 11.5C6.83333 10.2623 7.325 9.07534 8.20017 8.20017C9.07534 7.325 10.2623 6.83333 11.5 6.83333C12.7377 6.83333 13.9247 7.325 14.7998 8.20017C15.675 9.07534 16.1667 10.2623 16.1667 11.5Z" stroke="#111827" stroke-width="2" stroke-linecap="round" stroke-linejoin="round"/>
</svg>
