<svg width="13" height="13" viewBox="0 0 13 13" fill="none" xmlns="http://www.w3.org/2000/svg">
<path d="M11.3267 0.5H1.67333C1.36215 0.5 1.0637 0.623619 0.843661 0.843661C0.623619 1.0637 0.5 1.36215 0.5 1.67333V11.3267C0.5 11.6379 0.623619 11.9363 0.843661 12.1563C1.0637 12.3764 1.36215 12.5 1.67333 12.5H11.3267C11.4808 12.5 11.6333 12.4697 11.7757 12.4107C11.918 12.3517 12.0474 12.2653 12.1563 12.1563C12.2653 12.0474 12.3517 11.918 12.4107 11.7757C12.4697 11.6333 12.5 11.4808 12.5 11.3267V1.67333C12.5 1.51925 12.4697 1.36667 12.4107 1.22432C12.3517 1.08196 12.2653 0.952615 12.1563 0.843661C12.0474 0.734707 11.918 0.64828 11.7757 0.589315C11.6333 0.530349 11.4808 0.5 11.3267 0.5ZM7.46 7.16667H5.96V11.46H4.76667V7.16667H3.26667V6.19333H7.46V7.16667ZM11.3267 10.6867C11.2302 10.8919 11.0746 11.0636 10.88 11.18C10.6752 11.306 10.4494 11.3941 10.2133 11.44C9.95016 11.4943 9.68205 11.5212 9.41333 11.52C9.13837 11.5198 8.86397 11.4952 8.59333 11.4467C8.3633 11.3996 8.13956 11.3257 7.92667 11.2267V10.0867L7.88667 10.0467H7.92667V10.0933C8.12719 10.2498 8.35254 10.3715 8.59333 10.4533C8.83379 10.5449 9.08939 10.5901 9.34667 10.5867C9.48111 10.589 9.61536 10.5756 9.74667 10.5467C9.8453 10.5236 9.93975 10.4854 10.0267 10.4333C10.0947 10.3919 10.1519 10.3347 10.1933 10.2667C10.2344 10.1892 10.2524 10.1016 10.2453 10.0142C10.2383 9.92676 10.2063 9.8432 10.1533 9.77333C10.0907 9.68547 10.0114 9.61073 9.92 9.55333C9.80903 9.4753 9.69069 9.40832 9.56667 9.35333L9.12 9.16667C8.76642 9.02104 8.45313 8.79237 8.20667 8.5C8.0004 8.25136 7.89143 7.93628 7.9 7.61333C7.89223 7.36799 7.94731 7.12474 8.06 6.90667C8.16754 6.71659 8.31826 6.55445 8.5 6.43333C8.70248 6.29862 8.92872 6.2036 9.16667 6.15333C9.4268 6.09346 9.69307 6.06437 9.96 6.06667C10.2031 6.06327 10.446 6.07888 10.6867 6.11333C10.8869 6.14463 11.0834 6.196 11.2733 6.26667V7.36667C11.1856 7.30412 11.0918 7.25051 10.9933 7.20667C10.8873 7.16104 10.7782 7.12316 10.6667 7.09333C10.5598 7.06206 10.4506 7.03976 10.34 7.02667C10.238 7.01705 10.1353 7.01705 10.0333 7.02667C9.90772 7.02459 9.78232 7.03802 9.66 7.06667C9.55965 7.08771 9.46303 7.12366 9.37333 7.17333C9.30333 7.21458 9.24396 7.27167 9.2 7.34C9.16009 7.4064 9.13933 7.48254 9.14 7.56C9.13838 7.6427 9.1616 7.72398 9.20667 7.79333C9.26143 7.86905 9.32913 7.9345 9.40667 7.98667C9.50066 8.0615 9.60369 8.12421 9.71333 8.17333L10.1333 8.36C10.3265 8.43983 10.5136 8.53341 10.6933 8.64C10.8514 8.7265 10.9953 8.83666 11.12 8.96667C11.2422 9.0851 11.3377 9.2283 11.4 9.38667C11.4639 9.56866 11.4955 9.76045 11.4933 9.95333C11.4886 10.2023 11.4318 10.4476 11.3267 10.6733V10.6867Z" fill="#111827"/>
</svg>
